<?xml version="1.0" encoding="iso-8859-1"?>
<!-- Uploaded to: SVG Repo, www.svgrepo.com, Generator: SVG Repo Mixer Tools -->
<svg height="800px" width="800px" version="1.1" id="Layer_1" xmlns="http://www.w3.org/2000/svg" xmlns:xlink="http://www.w3.org/1999/xlink" 
	 viewBox="0 0 390.231 390.231" xml:space="preserve">
<path style="fill:#FFC10D;" d="M311.085,137.115c0,49.842-76.412,168.533-114.877,223.806
	C122.511,254.707,80.232,173.382,80.232,137.115c0-63.418,51.459-115.459,115.459-115.459S311.085,73.18,311.085,137.115z"/>
<path style="fill:#194F82;" d="M195.626,0C120.313,0,58.511,61.22,58.511,137.115c0,72.598,126.836,247.143,127.354,247.661
	c3.814,6.529,13.576,7.564,17.907,1.099c5.43-7.047,127.935-176.679,127.935-248.76C332.741,61.22,270.939,0,195.626,0z
	 M311.085,137.115c0,49.842-76.412,168.533-114.877,223.806C122.511,254.707,80.232,173.382,80.232,137.115
	c0-63.418,51.459-115.459,115.459-115.459S311.085,73.18,311.085,137.115z"/>
<path style="fill:#56ACE0;" d="M212.434,145.778l6.529,20.04l-16.808-12.477c-4.331-2.715-8.663-2.715-12.994,0l-16.808,12.477
	l6.529-20.04c1.616-4.331,0-9.244-3.814-11.895l-16.808-12.477H179.4c4.848,0,8.663-3.232,10.279-7.564l6.529-20.04l6.529,20.04
	c1.616,4.331,5.43,7.564,10.279,7.564h21.139l-17.907,12.477C212.434,136.598,210.818,141.446,212.434,145.778z"/>
<path style="fill:#194F82;" d="M266.608,99.685h-46.61l-14.093-44.412c-3.232-9.762-17.325-9.762-20.622,0L171.19,99.685h-46.61
	c-10.279,0-14.61,13.576-6.529,19.523l37.366,27.087l-14.093,43.895c-3.814,9.762,8.145,18.424,16.291,12.477l38.012-27.604
	l37.366,27.087c8.663,5.947,20.04-2.198,16.808-11.895l-14.093-43.96l37.366-27.087C281.8,113.261,277.469,99.685,266.608,99.685z
	 M216.248,133.883c-3.814,2.715-5.43,7.564-3.814,11.895l6.529,20.04l-16.808-12.477c-4.331-2.715-8.663-2.715-12.994,0
	l-16.808,12.477l6.529-20.04c1.616-4.331,0-9.244-3.814-11.895l-16.808-12.477H179.4c4.848,0,8.663-3.232,10.279-7.564l6.529-20.04
	l6.529,20.04c1.616,4.331,5.43,7.564,10.279,7.564h21.139L216.248,133.883z"/>
</svg>